<svg xmlns="http://www.w3.org/2000/svg" viewBox="0 0 720 420" font-family="Inter, sans-serif">
  <style>
    .box { fill: #f5f5f5; stroke: #525252; stroke-width: 1.5; rx: 8; }
    .label { font-size: 14px; fill: #0a0a0a; font-weight: 600; }
    .sub { font-size: 11px; fill: #525252; }
    .arrow { stroke: #0d9488; stroke-width: 2; fill: none; }
    .arrow-label { font-size: 10px; fill: #525252; font-family: 'JetBrains Mono', monospace; }
  </style>

  <!-- User -->
  <rect class="box" x="260" y="20" width="200" height="50"/>
  <text class="label" x="360" y="42" text-anchor="middle">User (CLI / Streamlit)</text>
  <text class="sub"   x="360" y="60" text-anchor="middle">question + dataset</text>

  <!-- Arrow down to Agent Loop -->
  <path class="arrow" d="M 360 70 L 360 110" marker-end="url(#arrowhead)"/>

  <!-- Agent Loop -->
  <rect class="box" x="200" y="110" width="320" height="80"/>
  <text class="label" x="360" y="138" text-anchor="middle">Agent Loop (orchestrator.py)</text>
  <text class="sub"   x="360" y="158" text-anchor="middle">parses &lt;code&gt;…&lt;/code&gt; from LLM output,</text>
  <text class="sub"   x="360" y="174" text-anchor="middle">executes, feeds result back, stops on &lt;answer&gt;</text>

  <!-- Three arrows down -->
  <path class="arrow" d="M 280 190 L 200 240" marker-end="url(#arrowhead)"/>
  <path class="arrow" d="M 360 190 L 360 240" marker-end="url(#arrowhead)"/>
  <path class="arrow" d="M 440 190 L 520 240" marker-end="url(#arrowhead)"/>

  <!-- llm_client -->
  <rect class="box" x="100" y="240" width="180" height="70"/>
  <text class="label" x="190" y="266" text-anchor="middle">llm_client.py</text>
  <text class="sub"   x="190" y="285" text-anchor="middle">Groq · Gemini</text>
  <text class="sub"   x="190" y="300" text-anchor="middle">retry · throttle</text>

  <!-- sandbox -->
  <rect class="box" x="280" y="240" width="160" height="70"/>
  <text class="label" x="360" y="266" text-anchor="middle">sandbox.py</text>
  <text class="sub"   x="360" y="285" text-anchor="middle">jupyter_client</text>
  <text class="sub"   x="360" y="300" text-anchor="middle">stdout · figures</text>

  <!-- trace -->
  <rect class="box" x="440" y="240" width="180" height="70"/>
  <text class="label" x="530" y="266" text-anchor="middle">trace.py</text>
  <text class="sub"   x="530" y="285" text-anchor="middle">JSON log</text>
  <text class="sub"   x="530" y="300" text-anchor="middle">every step</text>

  <defs>
    <marker id="arrowhead" markerWidth="10" markerHeight="7" refX="9" refY="3.5" orient="auto">
      <polygon points="0 0, 10 3.5, 0 7" fill="#0d9488"/>
    </marker>
  </defs>
</svg>
